<svg>
	<symbol viewBox="0 0 100 100" xmlns="http://www.w3.org/2000/svg" id="services">
		<path d="M52.6603 86.608H6.94492C5.00195 86.608 3.42676 88.2442 3.42676 90.2623C3.42676 92.2804 5.00195 93.9165 6.94492 93.9165H52.6605C54.6035 93.9165 56.1787 92.2804 56.1787 90.2623C56.1785 88.2442 54.6035 86.608 52.6603 86.608Z" fill="inherit"/>
		<path d="M91.335 81.9866L77.8687 81.9755L73.1445 73.2376C74.3271 74.5278 75.8176 75.4815 77.5061 75.9996C78.4357 76.2849 79.384 76.4258 80.3268 76.4258C81.9592 76.4258 83.5758 76.0023 85.0498 75.1693L88.0711 73.4622C90.3971 72.1478 92.0908 69.9716 92.8404 67.3344C93.5902 64.6971 93.3062 61.914 92.0408 59.4984L90.3975 56.3607C89.132 53.9447 87.0373 52.1855 84.498 51.4067C81.959 50.6274 79.2795 50.9224 76.9539 52.2368L73.9328 53.9439C69.774 56.2941 67.8838 61.3086 69.1502 65.8494L68.642 64.9093C68.4625 64.5774 68.257 64.2498 68.0313 63.9343C66.6605 61.9312 64.7529 60.4369 62.5914 59.6019C62.7551 59.4451 62.9156 59.283 63.0695 59.1107C66.3227 55.4739 66.1211 49.7661 62.6215 46.3855L40.7562 25.2362C40.5574 25.0443 40.3437 24.8575 40.1197 24.6795C40.009 24.5854 39.8934 24.499 39.7797 24.4093C41.041 24.1002 42.243 23.5313 43.3232 22.717C45.4662 21.1018 46.875 18.7167 47.2904 16.0009L47.8303 12.4724C48.6877 6.86619 44.9939 1.58029 39.5965 0.6893L36.1996 0.128575C30.8031 -0.76262 25.7131 3.07441 24.8553 8.68084L24.3156 12.2085C23.9002 14.9243 24.5277 17.6459 26.0828 19.8716C26.8639 20.9896 27.8322 21.9147 28.9338 22.6139C27.8719 22.9992 26.8582 23.5475 25.9223 24.2529C23.4078 26.1485 21.7545 28.9475 21.2652 32.1465L17.268 58.8448H11.6316C5.21797 58.8448 0 64.2644 0 70.9261C0 77.5879 5.21797 83.0077 11.6316 83.0077L58.5363 83.0064L65.2383 95.4028C66.8547 98.3921 70.0057 100.177 73.2945 99.9844L91.324 100C91.326 100 91.3273 100 91.3289 100C96.1074 100 99.9971 95.9634 100 90.9994C100.003 86.0332 96.116 81.9903 91.335 81.9866ZM75.9119 62.1418C76.1293 61.3766 76.6207 60.7454 77.2955 60.3638L80.3168 58.6567C80.9914 58.2753 81.7682 58.1897 82.5053 58.4161C83.242 58.6419 83.8496 59.1525 84.217 59.8534L85.8605 62.9914C86.2275 63.6923 86.3102 64.4995 86.0926 65.2647C85.875 66.0299 85.3838 66.661 84.709 67.0424L81.6875 68.7496C81.0129 69.1305 80.2355 69.2161 79.4992 68.9906C78.7625 68.7646 78.1549 68.2542 77.7873 67.553L76.1437 64.4151C75.7768 63.7144 75.6943 62.9068 75.9119 62.1418ZM31.2645 13.3557L31.8041 9.82805C32.0531 8.20146 33.5291 7.08833 35.0951 7.34658L38.4918 7.90731C40.058 8.16596 41.1297 9.69964 40.8811 11.3258L40.3412 14.8543C40.2207 15.6418 39.8121 16.334 39.1906 16.8024C38.5686 17.271 37.808 17.4607 37.0498 17.3349L33.6531 16.7744C32.8945 16.6493 32.2285 16.2249 31.7773 15.5789C31.3262 14.933 31.1438 14.1438 31.2645 13.3557ZM28.2162 33.2813C28.4088 32.0223 29.0617 30.9163 30.0553 30.1675C31.0486 29.4189 32.2627 29.1169 33.4758 29.3163C34.2916 29.451 35.0561 29.8103 35.6873 30.3558C35.7338 30.3959 35.7809 30.4347 35.8293 30.4724C35.8816 30.5128 35.9273 30.5523 35.9635 30.5872L57.8262 51.7345C57.8271 51.7355 57.8283 51.7365 57.8293 51.7373C58.4898 52.3749 58.5279 53.4514 57.9145 54.1375C57.301 54.8237 56.2643 54.8629 55.6092 54.231L41.9016 40.9525C40.9479 40.0287 39.5809 39.7288 38.349 40.1725C37.1172 40.6164 36.2229 41.7315 36.025 43.0702L33.693 58.845H24.3891L28.2162 33.2813ZM50.0559 58.8448H40.8111L41.9691 51.0113L50.0559 58.8448ZM91.3299 92.6915H91.3289L73.1861 92.6759C73.185 92.6759 73.1838 92.6759 73.1826 92.6759C73.0961 92.6759 73.0096 92.6793 72.9232 92.6858C72.2939 92.7347 71.6828 92.3961 71.3736 91.8243L63.6635 77.5631C63.0408 76.411 61.8678 75.6984 60.5959 75.6984L11.6316 75.6998C9.09766 75.6998 7.03613 73.5585 7.03613 70.9265C7.03613 68.2945 9.09766 66.1535 11.6316 66.1535H20.2812H36.7119H58.5469C60.04 66.1535 61.4465 66.9142 62.3092 68.188C62.3322 68.2221 62.3557 68.2558 62.3801 68.2888C62.4303 68.3578 62.473 68.4248 62.5072 68.4883L72.7414 87.417C73.3637 88.568 74.5352 89.2809 75.8061 89.2817L91.3297 89.2949H91.3299C92.2316 89.2957 92.9648 90.0579 92.9641 90.9943C92.9631 91.9306 92.2299 92.6915 91.3299 92.6915Z" fill="inherit"/>
	</symbol>

	<symbol viewBox="0 0 100 100" xmlns="http://www.w3.org/2000/svg" id="hotStones">
		<path d="M96.7615 77.5737H30.8047L31.6348 74.7101H89.2922C95.1965 74.7101 100 69.7653 100 63.6873C100 58.1375 95.9945 53.5347 90.8035 52.776V34.7348C90.8035 24.7891 82.9437 16.6978 73.2761 16.6978L68.4181 16.7076C66.4224 16.6103 64.5003 17.2981 62.9984 18.6598L52.8161 27.8772L40.1292 31.9331C38.1794 32.5578 36.5823 33.9269 35.6329 35.7882C34.6835 37.649 34.4948 39.7793 35.1018 41.7862C36.212 45.4578 39.7104 47.6961 43.2931 47.262C42.5901 47.8737 42.1425 48.7867 42.1425 49.8085C42.1425 51.0221 42.7745 52.081 43.7157 52.6643H36.6956C37.6372 52.081 38.2688 51.0221 38.2688 49.8085C38.2688 47.9671 36.8188 46.4744 35.0301 46.4744H31.4147C29.626 46.4744 28.176 47.9671 28.176 49.8085C28.176 51.0276 28.8139 52.091 29.7626 52.6725C25.9397 52.8209 22.5159 55.0417 20.7288 58.4881C19.361 55.074 16.0946 52.6643 12.2908 52.6643H9.12463C4.09317 52.6641 0 56.878 0 62.0577V65.3169C0 70.4962 4.09317 74.7101 9.12463 74.7101H12.291C13.5733 74.7101 14.7938 74.4353 15.9022 73.9415L15.1914 76.3929L14.1414 77.6578C13.9108 77.6043 13.6721 77.5733 13.4256 77.5733H3.23868C1.45 77.5735 0 79.0662 0 80.9076C0 82.749 1.45 84.2415 3.23868 84.2415H8.67717L6.37638 87.0136C5.04923 88.6113 4.40528 90.645 4.56388 92.7407C4.72267 94.8365 5.66466 96.7432 7.21583 98.1092C8.6133 99.3399 10.3541 100 12.1737 99.9998C12.3746 99.9998 12.5768 99.9918 12.7793 99.9757C14.8151 99.8126 16.6672 98.8431 17.9963 97.2438L27.6551 85.6053C27.7725 85.4642 27.8688 85.3343 27.9477 85.2247C28.2126 84.8962 28.4479 84.5495 28.6553 84.1874C28.8395 84.221 29.028 84.2417 29.2213 84.2417H96.7613C98.55 84.2417 100 82.749 100 80.9076C100 79.0664 98.5502 77.5737 96.7615 77.5737ZM14.9379 65.3169C14.9379 66.8195 13.7504 68.042 12.2908 68.042H9.12463C7.66486 68.042 6.47736 66.8195 6.47736 65.3169V62.0577C6.47736 60.5549 7.66486 59.3322 9.12463 59.3322H12.291C13.7506 59.3322 14.9381 60.5549 14.9381 62.0577L14.9379 65.3169ZM42.9677 40.5323C42.8938 40.551 42.8208 40.5715 42.7487 40.5947C42.1345 40.7919 41.4778 40.437 41.2868 39.8041C41.1618 39.3907 41.2837 39.0527 41.3679 38.8882C41.4518 38.7237 41.6526 38.4286 42.0524 38.3003L55.397 34.0343C55.8317 33.8953 56.2331 33.6635 56.5751 33.3539L67.2777 23.6653C67.5937 23.3792 67.9447 23.3563 68.1238 23.3683C68.1951 23.3729 73.283 23.3653 73.283 23.3653C79.3724 23.3653 84.3265 28.4653 84.3265 34.7342V52.6636H68.1369V35.4246C68.1369 34.1742 67.4574 33.0289 66.3765 32.4579C65.2954 31.8871 63.9956 31.987 63.0089 32.7165C60.612 34.4885 57.7159 36.5713 56.7583 37.1834L42.9677 40.5323ZM48.997 46.4742H46.7142L58.6605 43.5728C58.7341 43.5548 58.8071 43.5344 58.8792 43.5113C59.2191 43.4025 59.5878 43.2843 61.6595 41.8441V52.6641H50.6624C51.604 52.0808 52.2357 51.0219 52.2357 49.8083C52.2357 47.9671 50.7856 46.4742 48.997 46.4742ZM29.6387 68.0062C28.0682 67.8063 26.5885 68.8012 26.1364 70.3613L23.184 80.5441C23.1377 80.7043 23.0586 80.8525 22.9485 80.9846C22.893 81.0506 22.8364 81.1242 22.7866 81.1947C22.7665 81.2229 22.7469 81.2514 22.7258 81.2794L13.0733 92.9102C12.6549 93.4141 11.9164 93.473 11.4268 93.0423C11.1072 92.7607 11.0358 92.408 11.0219 92.2226C11.0078 92.0372 11.0252 91.6773 11.2998 91.3468L20.561 80.1882C20.8543 79.8343 21.0729 79.4215 21.202 78.976L25.9026 62.7638C25.9299 62.6685 25.9731 62.5726 26.0348 62.4708C26.1251 62.3213 26.204 62.1646 26.2702 62.0024C26.9323 60.3804 28.4641 59.3324 30.1725 59.3324H64.8982H87.5654H89.2928C91.6254 59.3324 93.5232 61.2862 93.5232 63.6875C93.5232 66.0886 91.6254 68.0422 89.2928 68.0422H30.1721C30.0042 68.0426 29.8296 68.0305 29.6387 68.0062Z" fill="inherit"/>
		<path d="M45.6369 20.4158C47.4306 22.3881 49.8625 23.3848 52.3006 23.3848C54.5361 23.3848 56.7768 22.5463 58.534 20.8529L60.8453 18.6255L60.8455 18.6253C64.5182 15.0854 64.7088 9.12979 61.2707 5.34874L59.1068 2.96932C55.6687 -0.811525 49.8828 -1.00837 46.2099 2.5316L43.8984 4.75921C40.2255 8.29938 40.0349 14.2556 43.4734 18.036L45.6369 20.4158ZM48.3248 9.62682L50.6361 7.39941C51.1459 6.90821 51.7957 6.66512 52.4445 6.66512C53.1517 6.66512 53.8576 6.95445 54.3779 7.52669L56.5418 9.9059C57.5391 11.0027 57.4838 12.7307 56.4186 13.7579L54.1072 15.9853C53.041 17.0122 51.3627 16.9553 50.3652 15.8589L48.2015 13.4792C47.2039 12.3822 47.2594 10.6541 48.3248 9.62682Z" fill="inherit"/>
		<path d="M18.5096 28.9841C19.1221 30.0041 20.1821 30.565 21.2672 30.565C21.8483 30.565 22.4366 30.4038 22.9672 30.0662C24.4885 29.0981 24.9594 27.0434 24.0186 25.4773C23.3123 24.3016 23.6547 22.6517 24.3026 20.074C24.9987 17.3045 25.8647 13.8579 24.05 10.7057C23.1383 9.12215 21.1524 8.59877 19.6127 9.53775C18.074 10.4765 17.566 12.5218 18.4781 14.1058C18.9196 14.8722 18.4682 16.6674 18.0321 18.4038C17.2594 21.4775 16.2979 25.3023 18.5096 28.9841Z" fill="inherit"/>
		<path d="M28.8782 28.9835C29.4907 30.0035 30.5509 30.5647 31.636 30.5647C32.2171 30.5647 32.8054 30.4034 33.3358 30.066C34.8573 29.0979 35.3282 27.043 34.3876 25.4771C33.6813 24.3012 34.0235 22.6513 34.6714 20.0734C35.3675 17.3041 36.2335 13.8575 34.419 10.7056C33.5075 9.12196 31.5204 8.59818 29.9817 9.53716C28.4428 10.4759 27.9348 12.5212 28.8468 14.1052C29.2884 14.8718 28.837 16.6672 28.4009 18.4034C27.6286 21.4773 26.6673 25.3021 28.8782 28.9835Z" fill="inherit"/>
	</symbol>

	<symbol viewBox="0 0 100 100" xmlns="http://www.w3.org/2000/svg" id="hygiene">
		<path d="M97.4244 25.1728L89.0462 13.5411C88.1861 12.347 86.597 11.6118 84.8767 11.6118C83.1568 11.6118 81.5673 12.3474 80.7076 13.5411L71.7656 25.9553C71.6705 26.0873 71.5857 26.2224 71.5119 26.3607C70.4012 28.0756 69.8159 29.9919 69.8159 31.9304C69.8159 38.6005 76.5863 44.0268 84.9079 44.0268C93.2295 44.0268 99.9998 38.6003 99.9998 31.9304C100.001 29.5076 99.1104 27.1752 97.4244 25.1728ZM84.9083 36.3095C81.8955 36.3095 79.4448 34.3448 79.4448 31.9304C79.4448 31.1671 79.6815 30.4449 80.1474 29.7837C80.2105 29.6943 80.2687 29.6031 80.3223 29.5109L84.8767 23.1881L89.1781 29.1597C89.246 29.2541 89.3189 29.3462 89.3966 29.4355C90.0346 30.1699 90.3721 31.0328 90.3721 31.9302C90.3721 34.3448 87.9212 36.3095 84.9083 36.3095Z" fill="inherit"/>
		<path d="M54.8818 34.1745V22.0194C54.8818 19.8883 52.7263 18.1606 50.0675 18.1606H40.4439V8.24271H84.9085C87.5673 8.24271 89.7229 6.51499 89.7229 4.38395C89.7229 2.25292 87.5673 0.525391 84.9085 0.525391H24.2398C21.5811 0.525391 19.4255 2.25311 19.4255 4.38415C19.4255 6.51519 21.5811 8.24291 24.2398 8.24291H30.8155V18.161H21.1922C18.5334 18.161 16.3778 19.8887 16.3778 22.0198V34.1749C7.04789 35.6827 0 42.3026 0 50.2184V84.1587C0 93.1835 9.16058 100.525 20.4202 100.525H50.8395C62.0993 100.525 71.2597 93.1833 71.2597 84.1587V50.2178C71.2594 42.3022 64.2118 35.6823 54.8818 34.1745ZM26.0063 25.8781H45.2534V33.8511H26.0063V25.8781ZM61.631 84.1581C61.631 88.9274 56.7901 92.8075 50.8395 92.8075H20.4202C14.4696 92.8075 9.62868 88.9274 9.62868 84.1581V50.2178C9.62868 45.4485 14.4696 41.5684 20.4202 41.5684H21.1922H50.0677H50.8397C56.7903 41.5684 61.6312 45.4485 61.6312 50.2178V84.1581H61.631Z" fill="inherit"/>
	</symbol>

	<symbol viewBox="0 0 100 100" xmlns="http://www.w3.org/2000/svg" id="remedies">
		<path d="M99.823 52.2589C99.6011 51.6016 94.2545 36.1329 82.4068 33.3446C76.4051 31.9321 70.0779 34.0011 63.5541 39.4936V32.4055C64.7693 31.923 65.6316 30.7233 65.6316 29.316C65.6316 27.9086 64.7693 26.709 63.5541 26.2264V3.84373C63.5541 2.01125 62.0941 0.525391 60.2932 0.525391H42.7941C40.9934 0.525391 39.5332 2.01105 39.5332 3.84373V13.0192C35.9908 6.35315 31.4123 2.39046 25.8709 1.21227C13.9664 -1.31842 2.73284 10.4375 2.26057 10.9393C1.3428 11.9138 1.09671 13.3569 1.63811 14.5894C2.17971 15.8216 3.39885 16.5973 4.7262 16.5516C20.8385 15.9931 37.7418 23.393 37.9102 23.4677C38.3293 23.6538 38.7725 23.7442 39.2125 23.7442C39.3199 23.7442 39.4268 23.738 39.5334 23.7273V26.2596C38.3643 26.764 37.5441 27.9424 37.5441 29.316C37.5441 30.6895 38.3645 31.8679 39.5334 32.3723V52.1442C36.8596 44.9544 32.7922 40.3573 27.3932 38.4489C15.9055 34.3887 3.28499 44.584 2.75354 45.02C1.72073 45.8671 1.29514 47.2663 1.67678 48.5588C2.05881 49.8512 3.1717 50.78 4.49241 50.907C5.83538 51.0364 7.17698 51.2226 8.50784 51.4538C3.27053 56.4142 0.437331 62.8392 0.277175 63.2088C-0.257786 64.4439 -0.0046608 65.8858 0.917995 66.8557C1.54456 67.5144 2.39475 67.866 3.26155 67.866C3.67092 67.866 4.0842 67.7875 4.47893 67.6257C19.4326 61.4978 37.8039 62.5714 37.9875 62.583C38.5375 62.6184 39.0637 62.5116 39.533 62.295V67.8177C38.3639 68.3221 37.5438 69.5005 37.5438 70.874C37.5438 72.2476 38.3641 73.426 39.533 73.9304V97.2071C39.533 99.0395 40.993 100.525 42.794 100.525H60.293C62.0937 100.525 63.5539 99.0397 63.5539 97.2071V73.9636C64.7691 73.4811 65.6314 72.2814 65.6314 70.874C65.6314 69.4667 64.7691 68.267 63.5539 67.7845V48.4588C67.9498 48.7146 83.0512 50.0261 95.2701 56.2991C95.7355 56.538 96.2385 56.6549 96.7381 56.6549C97.5103 56.6549 98.2752 56.3758 98.882 55.8374C99.882 54.9504 100.254 53.5353 99.823 52.2589ZM13.6783 10.2828C16.8625 8.39411 20.7877 6.90448 24.5535 7.7118C27.7037 8.38716 30.4828 10.6706 32.8598 14.5244C27.9281 12.9151 21.0781 11.0762 13.6783 10.2828ZM10.794 58.6191C12.4363 56.6159 14.483 54.6699 16.8653 53.4796C19.6658 54.3372 22.3139 55.3151 24.7059 56.2971C20.4998 56.6823 15.685 57.3813 10.794 58.6191ZM14.1969 45.8653C17.5932 44.4132 21.661 43.4483 25.2529 44.7179C28.2994 45.7947 30.7738 48.4232 32.6494 52.5618C27.9692 50.3268 21.4217 47.6161 14.1969 45.8653ZM57.0322 93.8887H46.0549V74.1922H57.0322V93.8887ZM57.0322 67.5557H46.0549V32.6341H57.0322V67.5557ZM57.0322 25.9974H46.0549V7.16186H57.0322V25.9974ZM70.5717 42.4412C74.3185 39.959 77.7836 39.0734 80.9213 39.8066C84.6726 40.6827 87.6203 43.711 89.731 46.7855C82.6875 44.3445 75.7113 43.0872 70.5717 42.4412Z" fill="inherit"/>
	</symbol>

	<symbol viewBox="0 0 1150 650" xmlns="http://www.w3.org/2000/svg" id="leaf">
		<g opacity="0.15">
			<path d="M605.087 560.265C605.087 560.265 682.693 608.977 742.371 732.919C751.082 751.013 742.811 772.725 724.291 780.486L715.121 784.33C695.288 792.639 672.649 781.341 667.505 760.463C656.351 715.168 627.345 639.299 580.312 608.093L605.087 560.265Z" fill="#328777"/>
			<path d="M580.312 608.093L605.087 560.267C605.087 560.267 631.087 576.588 664.563 614.371C650.254 624.191 632.427 636.471 618.004 646.555C607.077 631.046 594.524 617.523 580.312 608.093Z" fill="#266659"/>
			<path d="M115.564 45.7045C36.6373 115.073 212.613 265.06 181.057 280.755C149.501 296.45 65.5466 202.838 65.5466 202.838L61.5591 278.566C95.923 327.096 144.573 364.981 176.816 386.895C189.579 395.569 181.068 415.659 165.998 412.347C115.118 401.167 54.1248 352.285 54.1248 352.285L83.02 431.026C143.181 495.587 232.768 512.614 284.111 516.892C295.53 517.843 297.305 533.807 286.386 537.282C229.532 555.377 169.29 534.92 169.29 534.92L219.552 615.041C286.229 649.761 376.964 639.033 426.18 629.237C436.365 627.208 442.35 640.257 434.2 646.693C382.842 687.249 333.997 684.099 333.997 684.099C530.792 781.558 594.727 585.957 594.727 585.957L599.627 581.651C599.627 581.651 800.755 545.971 725.531 339.985C725.531 339.985 722.807 382.269 684.719 424.983C675.605 435.203 659.018 425.705 663.09 412.63C678.477 363.225 695.61 282.75 671.738 217.621L598.732 157.488C598.732 157.488 608.485 205.94 593.513 254.449C588.857 269.536 566.527 266.179 566.549 250.39C566.621 197.515 556.784 118.948 506.775 58.5935L432.394 19.8296C432.394 19.8296 504.337 137.998 467.523 182.11C467.523 182.11 429.209 83.0949 358.33 17.7374L282.718 11.9702C282.718 11.9702 364.777 107.248 345.16 136.529C325.542 165.81 199.391 -27.9687 120.464 41.3982L115.564 45.7045Z" fill="#7CD8A4"/>
		<g opacity="0.18">
			<path d="M175.66 386.894C143.417 364.981 94.7669 327.094 60.403 278.565L64.3905 202.837C64.3905 202.837 148.345 296.449 179.901 280.754C207.732 266.913 74.1467 148.618 96.3544 73.2935C265.283 336.561 476.306 500.053 597.565 582.446L593.568 585.957C593.568 585.957 529.632 781.558 332.838 684.099C332.838 684.099 381.683 687.247 433.041 646.691C441.191 640.255 435.206 627.208 425.022 629.235C375.806 639.03 285.074 649.76 218.395 615.04L168.132 534.918C168.132 534.918 228.374 555.378 285.229 537.281C296.149 533.806 294.374 517.842 282.954 516.89C231.61 512.612 142.025 495.586 81.8623 431.025L52.967 352.283C52.967 352.283 113.961 401.166 164.84 412.345C179.912 415.658 188.424 395.567 175.66 386.894Z" fill="#328777"/>
		</g>
			<path d="M47.1373 342.572C51.4951 339.435 57.4123 339.586 61.6061 342.944C62.1951 343.414 121.061 390.22 168.567 400.658C169.196 400.798 170.154 401.008 170.824 399.453C171.548 397.778 170.601 397.136 170.092 396.791C135.375 373.197 86.6685 334.731 51.7936 285.479C50.2358 283.282 49.467 280.624 49.6092 277.933L53.5967 202.205C53.8514 197.369 56.9967 193.162 61.5654 191.551C66.1295 189.941 71.2216 191.241 74.456 194.844C74.6607 195.074 95.2043 217.908 119.271 238.607C147.842 263.175 164.523 270.188 172.11 270.575C168.693 261.258 155.228 241.616 145.029 226.737C107.078 171.376 49.7342 87.7246 107.604 36.7654C107.611 36.7592 107.617 36.7529 107.623 36.7467C107.626 36.7436 107.631 36.742 107.634 36.7389C107.643 36.7295 107.653 36.7217 107.662 36.7123L112.561 32.4076C170.532 -18.5453 246.168 49.0998 296.216 93.8621C309.661 105.887 327.41 121.76 336.213 126.346C336.8 118.787 332.008 101.395 311.405 70.0122C293.982 43.4748 273.847 20.0092 273.646 19.7764C270.486 16.1046 269.851 10.8921 272.036 6.57023C274.222 2.24837 278.797 -0.335992 283.624 0.0358818L359.238 5.80305C359.297 5.80773 359.353 5.82492 359.41 5.83117C360.013 5.88742 360.611 5.97492 361.197 6.12023C361.224 6.12648 361.25 6.13586 361.277 6.14367C361.852 6.29054 362.413 6.48586 362.961 6.71554C363.03 6.74367 363.1 6.76867 363.167 6.79836C363.708 7.03742 364.23 7.32179 364.733 7.64054C364.81 7.69054 364.886 7.73741 364.961 7.78898C365.461 8.12023 365.938 8.48741 366.388 8.89835C366.403 8.91241 366.422 8.92335 366.439 8.93897C415.528 54.2044 449.062 114.195 465.972 149.176C466.628 113.643 442.358 59.256 422.167 26.0514C419.375 21.4624 419.98 15.5749 423.652 11.653C427.323 7.73116 433.155 6.73586 437.92 9.2171L512.301 47.981C513.715 48.7185 514.967 49.731 515.986 50.9576C518.318 53.7732 520.539 56.6357 522.707 59.52C523.029 59.8966 523.328 60.2966 523.604 60.7169C568.853 121.69 578.584 196.834 578.51 250.405C578.51 251.085 578.509 251.93 580.048 252.165C581.621 252.391 581.87 251.58 582.074 250.921C595.916 206.071 587.084 160.295 586.995 159.852C585.996 154.888 588.227 149.832 592.571 147.229C596.913 144.626 602.423 145.035 606.332 148.256L679.338 208.387C680.982 209.74 682.233 211.505 682.966 213.505C707.394 280.149 691.85 360.509 674.508 416.189C674.36 416.666 674.416 416.731 674.516 416.851C674.802 417.187 675.274 417.33 675.424 417.336C675.424 417.336 675.554 417.273 675.78 417.02C710.368 378.23 713.557 339.553 713.583 339.217C713.947 333.569 718.218 328.947 723.822 328.142C729.427 327.33 734.825 330.566 736.766 335.885C761.147 402.633 760.189 459.604 733.924 505.209C711.033 544.953 673.761 567.581 644.594 579.954C668.837 599.515 711.913 643.046 753.153 728.697C758.8 740.422 759.363 753.588 754.742 765.766C750.116 777.963 740.942 787.453 728.918 792.491L719.746 796.334C713.904 798.783 707.714 800.001 701.536 800.001C694.269 800.001 687.013 798.316 680.355 794.964C668.083 788.789 659.166 777.608 655.888 764.291C646.733 727.117 625.969 662.569 586.929 630.113C570.435 657.816 542.307 692.703 498.697 711.013C479.151 719.221 458.376 723.318 436.451 723.316C427.837 723.316 419.044 722.669 410.084 721.405C409.077 721.672 408.055 721.816 407.044 721.816C404.669 721.816 402.356 721.092 400.398 719.788C377.525 715.463 353.592 707.155 328.688 694.821C323.596 692.299 321.003 686.543 322.453 681.047C323.902 675.554 329.027 671.857 334.717 672.154C335.147 672.183 375.549 674.027 419.637 642.66C367.938 652.038 280.191 660.104 214.029 625.654C212.141 624.671 210.549 623.202 209.418 621.399L159.156 541.278C156.467 536.992 156.771 531.482 159.904 527.512C163.034 523.543 168.334 521.973 173.128 523.584C173.667 523.764 225.08 540.728 275.079 528.067C222.868 522.709 134.546 503.871 74.2669 439.184C73.1794 438.019 72.3357 436.644 71.7872 435.15L42.8921 356.408C41.0421 351.366 42.7795 345.71 47.1373 342.572ZM164.768 213.208C188.59 247.958 199.877 265.294 196.193 279.479C194.824 284.747 191.341 289.005 186.387 291.469C168.082 300.575 141.795 289.543 103.667 256.755C93.3887 247.916 83.8262 238.821 76.0435 231.077L73.8716 272.321C132.957 318.105 195.604 336.317 260.155 326.403C290.752 321.71 314.794 311.444 328.832 304.197L115.42 63.5747C90.6216 98.7027 124.439 154.381 164.768 213.208ZM331.294 56.6966C358.917 98.7199 366.481 126.203 355.1 143.188C352.019 147.787 347.349 150.692 341.95 151.373C327.416 153.195 311.669 139.785 280.265 111.701C224.482 61.8122 171.22 19.478 132.681 46.9701L347.466 289.139C356.217 277.11 370.931 253.697 380.391 221.502C398.881 158.577 389.058 93.9058 351.221 29.1951L309.375 26.003C316.053 34.7186 323.847 45.3685 331.294 56.6966ZM461.15 48.3107C465.719 57.8044 470.556 68.6684 474.944 80.1606C494.364 131.032 494.959 167.912 476.711 189.779C473.997 193.032 469.764 194.599 465.584 193.918C461.405 193.232 457.897 190.384 456.365 186.435C456.103 185.759 437.373 138.126 402.758 88.1309C419.264 145.249 413.486 193.765 403.353 228.251C391.775 267.654 373.116 295.199 363.681 307.424L433.906 386.602C445.376 372.75 467.395 343.405 485.668 302.778C519.757 226.991 525.487 149.618 502.742 72.7668C501.542 71.1919 500.326 69.6247 499.072 68.0762L461.15 48.3107ZM604.946 257.98C601.099 270.446 589.387 277.786 576.468 275.83C563.563 273.874 554.564 263.408 554.581 250.376C554.623 220.074 551.349 182.429 539.512 145.046C543.392 213.912 525.714 272.34 507.111 313.441C486.387 359.228 461.659 391.048 449.98 404.725L518.114 481.547C545.57 444.344 631.91 318.864 636.782 206.229C636.807 205.643 636.888 205.074 636.994 204.512L613.643 185.277C614.413 204.691 613.209 231.208 604.946 257.98ZM725.716 383.259C719.222 398.159 709.177 415.534 693.649 432.948C685.738 441.823 673.469 443.85 663.116 437.989C652.876 432.194 648.165 420.303 651.662 409.073C664.747 367.053 683.193 287.816 661.565 224.754L659.538 223.085C653.924 278.863 631.29 342.103 592.106 411.366C568.168 453.675 544.909 485.876 534.353 499.859L557.603 526.073C557.685 526.109 557.765 526.154 557.846 526.193C577.846 526.703 662.922 521.942 729.897 412.391C729.225 403.006 727.85 393.302 725.716 383.259ZM713.272 493.112C719.349 482.526 723.772 471.118 726.614 458.956C689.397 505.879 649.805 528.199 620.737 538.796C604.288 544.793 589.626 547.71 578.001 549.068L596.648 570.091C596.938 570.016 597.224 569.926 597.52 569.873C598.318 569.729 677.89 554.745 713.272 493.112ZM679.124 758.567C680.729 765.083 685.099 770.558 691.115 773.584C697.175 776.636 704.239 776.883 710.496 774.261L719.668 770.417C725.58 767.939 730.089 763.27 732.364 757.274C734.633 751.294 734.358 744.831 731.589 739.08C682.482 637.088 630.827 598.468 617.307 589.648C612.045 591.16 607.849 592.159 605.127 592.749L604.971 592.888C603.766 596.154 601.582 601.677 598.331 608.618C642.782 642.683 666.744 708.299 679.124 758.567ZM580.97 588.484L560.435 565.331C557.568 576.499 552.839 590.271 545.031 605.33C531.096 632.201 504.731 667.619 455.551 698.06C467.27 696.5 478.522 693.508 489.261 689.014C545.498 665.494 573.156 607.602 580.97 588.484ZM423.844 617.499C433.931 615.493 443.611 620.415 447.92 629.755C452.239 639.113 449.706 649.693 441.614 656.082C418.936 673.991 396.688 683.935 378.302 689.435C388.17 692.628 397.803 695.029 407.206 696.679C460.976 672.333 501.001 637.446 523.143 595.541C535.531 572.099 539.292 552.192 540.428 542.773L516.171 515.424C500.312 524.404 466.104 542.784 422.327 560.581C352.291 589.051 289.568 603.412 235.424 603.412C232.348 603.412 229.307 603.349 226.285 603.257L227.927 605.874C291.315 637.24 377.617 626.699 423.844 617.499ZM290.016 548.684C254.935 559.849 219.127 557.409 194.943 553.292L210.812 578.587C211.577 578.502 212.362 578.485 213.159 578.551C324.114 588.065 457.686 520.362 499.89 497.067L431.742 420.23C415.644 430.508 381.953 449.729 336.13 463.717C306.972 472.617 270.038 480.095 228.226 480.095C207.66 480.095 185.902 478.254 163.328 473.914C208.254 495.057 254.951 502.456 285.108 504.968C295.91 505.867 304.3 514.017 305.518 524.781C306.732 535.562 300.358 545.392 290.016 548.684ZM93.4075 424.601C94.4794 425.726 95.5825 426.803 96.6747 427.898C170.362 460.864 248.288 465.3 328.305 441.079C368.761 428.834 399.57 411.942 415.614 402.047L345.18 322.633C330.563 330.758 302.374 343.955 264.963 349.88C253.648 351.672 240.982 352.844 227.204 352.844C197.306 352.844 162.188 347.313 124.392 330.585C145.178 349.505 166.181 365.2 183.542 377C194.021 384.12 197.831 397.247 192.804 408.923C187.809 420.526 175.724 426.741 163.429 424.037C133.871 417.544 101.759 399.523 78.6904 384.495L93.4075 424.601Z" fill="black"/>
		</g>
	</symbol>

	<symbol viewBox="0 0 10 1000" xmlns="http://www.w3.org/2000/svg" id="stones">
		<g opacity="0.15">
			<path d="M461.858 330.665C461.858 319.367 449.353 310.406 431.52 307.956C438.369 291.052 436.974 275.557 427.335 269.901C417.934 264.384 403.607 270.856 392.736 285.108C381.866 270.856 367.538 264.384 358.138 269.901C356.353 270.944 354.946 272.427 353.739 274.099C341.687 265.917 327.234 258.666 310.821 252.746C337.59 238.382 353.928 218.789 353.928 196.846C353.928 170.19 329.848 146.387 289.016 131.469C305.392 120.963 315.119 107.478 315.119 92.5853C315.119 58.2884 263.655 31.4189 197.939 31.4189C132.236 31.4189 80.7717 58.2884 80.7717 92.5727C80.7717 107.465 90.499 120.95 106.875 131.457C66.03 146.374 41.9505 170.177 41.9505 196.833C41.9505 218.764 58.2506 238.331 84.9818 252.684C33.4674 271.17 3.14185 300.918 3.14185 334.008C3.14185 389.846 88.7144 433.581 197.939 433.581C262.486 433.581 321.503 417.708 357.748 391.103C357.887 391.191 358 391.329 358.138 391.417C367.526 396.959 381.866 390.462 392.736 376.21C400.905 386.93 410.834 393.491 419.505 393.491C422.371 393.491 425.01 392.787 427.335 391.417C436.974 385.762 438.369 370.253 431.52 353.362C449.353 350.924 461.858 341.964 461.858 330.665ZM93.3393 92.5727C93.3393 66.2437 141.234 43.9865 197.939 43.9865C254.644 43.9865 302.552 66.2437 302.552 92.5727C302.552 118.902 254.644 141.159 197.939 141.159C141.234 141.159 93.3393 118.914 93.3393 92.5727ZM54.5181 196.833C54.5181 173.91 80.4449 152.105 122.194 139.55C142.491 148.423 168.795 153.727 197.939 153.727C227.083 153.727 253.4 148.423 273.684 139.55C315.433 152.105 341.36 173.91 341.36 196.833C341.36 233.581 275.67 264.635 197.939 264.635C120.209 264.635 54.5181 233.581 54.5181 196.833ZM15.7094 334.008C15.7094 304.5 48.5987 276.424 101.634 260.4C128.001 270.932 161.254 277.203 197.939 277.203C234.599 277.203 267.827 270.944 294.182 260.425C316.238 267.099 335.29 276.097 349.818 286.578C349.517 292.9 350.836 300.252 353.953 307.956C336.12 310.394 323.615 319.354 323.615 330.665C323.615 341.976 336.12 350.924 353.953 353.375C349.78 363.668 348.712 373.395 350.66 380.747C316.954 405.606 259.193 421.014 197.939 421.014C99.1706 421.014 15.7094 381.174 15.7094 334.008ZM421.805 341.461C419.581 341.473 417.52 342.655 416.401 344.578C415.27 346.5 415.258 348.888 416.351 350.824C425.249 366.621 424.055 378.774 420.963 380.596C417.256 382.72 405.882 375.167 398.178 361.72C397.06 359.759 394.986 358.553 392.724 358.553C390.462 358.553 388.388 359.759 387.27 361.72C379.566 375.167 368.657 382.657 364.987 380.596C364.623 380.37 364.459 379.98 364.459 379.453V379.427C364.459 375.645 361.845 364.635 369.625 350.824C370.718 348.888 370.454 346.5 369.323 344.578C368.205 342.655 366.018 341.473 363.793 341.461C347.28 341.411 336.245 334.913 336.245 330.665C336.245 326.417 347.179 319.92 363.693 319.87C365.917 319.857 367.966 318.676 369.072 316.753C370.203 314.83 370.203 312.442 369.109 310.507C362.888 299.473 361.644 290.311 362.486 285.108C362.511 285.032 362.499 284.97 362.511 284.894C362.888 282.77 363.58 281.262 364.485 280.734C368.205 278.648 379.578 286.164 387.27 299.611C389.507 303.532 395.929 303.532 398.166 299.611C405.857 286.151 417.205 278.585 420.951 280.734C424.042 282.569 425.236 294.71 416.338 310.507C415.245 312.442 415.258 314.83 416.389 316.753C417.507 318.676 419.568 319.857 421.793 319.87C438.306 319.92 449.278 326.417 449.278 330.665C449.278 334.913 438.332 341.411 421.805 341.461Z" fill="#808184"/>
			<path d="M167.3 60.4374C132.814 64.3334 114.051 84.6426 113.272 85.4972C110.934 88.0735 111.135 92.0449 113.699 94.3699C114.905 95.4632 116.413 96.0037 117.922 96.0037C119.631 96.0037 121.327 95.2999 122.572 93.9426C122.735 93.7541 138.884 76.2977 168.695 72.9296C172.138 72.54 174.626 69.4358 174.237 65.9797C173.86 62.5236 170.504 60.0855 167.3 60.4374Z" fill="#808184"/>
			<path d="M142.529 160.978C108.043 164.874 89.28 185.183 88.5008 186.038C86.1632 188.614 86.3643 192.585 88.9281 194.91C90.1346 196.004 91.6427 196.544 93.1508 196.544C94.86 196.544 96.5566 195.84 97.8008 194.483C97.9642 194.295 114.114 176.838 143.924 173.47C147.367 173.081 149.856 169.976 149.466 166.52C149.076 163.064 145.696 160.626 142.529 160.978Z" fill="#808184"/>
			<path d="M124.381 284.756C80.0553 292.447 57.3834 320.109 56.4409 321.277C54.2667 323.979 54.694 327.913 57.396 330.1C58.5522 331.03 59.9472 331.482 61.3296 331.482C63.1645 331.482 64.9742 330.69 66.2184 329.157C66.4321 328.893 87.068 303.972 126.543 297.11C129.949 296.519 132.248 293.264 131.645 289.846C131.067 286.453 127.825 284.065 124.381 284.756Z" fill="#808184"/>
		</g>
	</symbol>

	<symbol viewBox="0 0 1920 150" xmlns="http://www.w3.org/2000/svg" id="waveTop">
		<path d="M0 128L45.7333 112C91.4667 96 182.667 64 274.667 53.3C365.733 43 457.333 53 548 64C640 75 732 85 822.667 96C914.267 107 1005.33 117 1097.33 128C1188.53 139 1280 149 1372 149.3C1462.8 149 1554.67 139 1645.33 122.7C1737.2 107 1828 85 1874.67 74.7L1920 64V4.57764e-05H1874.27C1828.53 4.57764e-05 1737.33 4.57764e-05 1645.33 4.57764e-05C1554.27 4.57764e-05 1462.67 4.57764e-05 1372 4.57764e-05C1280 4.57764e-05 1188 4.57764e-05 1097.33 4.57764e-05C1005.73 4.57764e-05 914.667 4.57764e-05 822.667 4.57764e-05C731.467 4.57764e-05 640 4.57764e-05 548 4.57764e-05C457.2 4.57764e-05 365.333 4.57764e-05 274.667 4.57764e-05C182.8 4.57764e-05 92 4.57764e-05 45.3333 4.57764e-05H0V128Z" fill="#D7DAC5"/>
	</symbol>
	
	<symbol viewBox="0 0 1920 174" xmlns="http://www.w3.org/2000/svg" id="waveBottom">
		<path d="M0 132.978L45.7333 141.871C91.4667 150.431 182.667 168.716 274.667 172.871C365.733 177.027 457.333 168.716 548 163.979C640 159.574 732 159.574 822.667 137.383C914.267 115.525 1005.33 70.6446 1097.33 75.3819C1188.53 79.7868 1280 132.978 1372 132.978C1462.8 132.978 1554.67 79.7868 1645.33 70.8939C1737.2 62.3335 1828 97.2402 1874.67 115.275L1920 132.978V0H1874.27C1828.53 0 1737.33 0 1645.33 0C1554.27 0 1462.67 0 1372 0C1280 0 1188 0 1097.33 0C1005.73 0 914.667 0 822.667 0C731.467 0 640 0 548 0C457.2 0 365.333 0 274.667 0C182.8 0 92 0 45.3333 0H0V132.978Z" fill="#CDD4B8"/>
	</symbol>

	<symbol viewBox="0 0 490 490" xmlns="http://www.w3.org/2000/svg" id="bowl">
		<g opacity="0.15" clip-path="url(#clip0_349_55)">
			<path d="M356.972 421.599C362.625 420.084 365.949 414.268 364.445 408.655L359.018 388.401C338.796 402.406 316.096 413.023 291.734 419.551C267.372 426.078 242.375 428.286 217.889 426.216L223.316 446.47C224.831 452.123 230.647 455.447 236.26 453.943L356.972 421.599Z" fill="#372A2A"/>
			<path d="M371.404 54.2675C351.6 46.4093 329.17 56.081 321.271 75.8956L274.268 194.286L367.242 169.374L393.032 104.4C400.89 84.5966 391.219 62.1666 371.404 54.2675Z" fill="#372A2A"/>
			<path d="M218.776 415.211C241.656 417.145 265.318 415.164 288.867 408.854C312.416 402.544 333.898 392.429 352.747 379.314C414.825 336.22 448.693 260.887 435.43 183.405C433.605 172.69 422.889 165.885 412.396 168.696L362.126 182.166L269.192 207.067L61.8094 262.636C51.3162 265.447 45.4386 276.699 49.2154 286.89C76.4699 360.624 143.467 408.931 218.776 415.211Z" fill="#372A2A"/>
			<path d="M89.465 184.128L94.3613 146.112L126.238 120.613L86.1211 116.498L63.4192 86.9235L58.5054 123.898L25.8207 147.52L66.1761 153.664L89.465 184.128Z" fill="#FFFB97"/>
		</g>
	</symbol>

	<symbol viewBox="0 0 800 300" xmlns="http://www.w3.org/2000/svg" id="flower">
		<g opacity="0.15">
			<path d="M400.022 100C327.17 100 268.381 157.91 264.084 229.688C199.534 216.992 132.639 250.586 108.616 314.062C83.6157 380.078 115.061 452.246 176.584 483.594C135.666 541.211 144.26 621.777 199.241 667.969C257.151 716.699 344.358 708.691 392.991 650.781C396.018 647.168 396.799 642.285 399.241 638.281C401.877 642.578 402.952 647.656 406.272 651.562C455.002 709.473 542.112 717.48 600.022 668.75C655.1 622.363 663.108 541.992 621.897 484.375C684.495 453.418 716.624 380.566 691.428 314.062C667.405 250.586 600.413 216.992 535.959 229.688C531.663 157.91 472.874 100 400.022 100ZM400.022 150C448.655 150 487.522 188.867 487.522 237.5C487.522 241.406 485.862 248.438 482.834 257.031C482.737 257.324 482.932 257.52 482.834 257.812L408.616 363.281C416.428 337.5 425.022 308.203 425.022 300C425.022 286.23 413.791 275 400.022 275C386.252 275 375.022 286.23 375.022 300C375.022 307.91 381.858 335.645 388.303 360.938L315.647 251.562C313.987 245.801 312.522 240.625 312.522 237.5C312.522 188.867 351.389 150 400.022 150ZM234.397 275C245.823 274.609 257.444 276.172 268.772 280.469C270.725 281.152 273.948 283.789 278.147 286.719C278.44 286.914 278.635 286.523 278.928 286.719L348.459 392.188C326.584 377.344 302.17 361.328 294.553 358.594C281.565 353.906 267.209 360.449 262.522 373.438C257.834 386.426 264.377 400.781 277.366 405.469C284.885 408.203 314.182 410.254 340.647 411.719L214.084 446.875C210.862 446.289 208.127 445.215 206.272 444.531C160.764 427.344 138.206 376.758 155.491 331.25C168.381 297.168 200.217 276.172 234.397 275ZM565.647 275C599.827 276.172 631.663 297.168 644.553 331.25C661.741 376.66 639.28 427.344 593.772 444.531C590.647 445.703 584.397 447.168 577.366 447.656L455.491 411.719C482.737 410.254 514.67 408.398 522.678 405.469C535.666 400.781 542.209 386.426 537.522 373.438C532.834 360.449 518.479 353.906 505.491 358.594C497.19 361.523 470.041 379.297 447.678 394.531L523.459 285.156C526.584 283.008 529.709 281.055 531.272 280.469C542.6 276.172 554.221 274.609 565.647 275ZM357.834 459.375C335.569 474.902 308.225 494.043 302.366 500.781C293.381 511.23 295.041 527.734 305.491 536.719C316.038 545.703 331.663 544.043 340.647 533.594C347.385 525.781 364.768 486.23 375.022 462.5V554.688C370.432 584.668 361.35 610.84 354.709 618.75C323.459 655.957 268.479 661.035 231.272 629.688C194.065 598.438 188.987 543.457 220.334 506.25C222.971 503.125 229.026 498.438 236.741 493.75L239.866 492.188L357.834 459.375ZM444.553 460.938L564.084 495.312C571.018 499.707 576.487 504.102 578.928 507.031C610.178 544.238 605.198 599.121 567.991 630.469C530.784 661.719 475.901 656.738 444.553 619.531C438.206 612.012 429.709 587.598 425.022 559.375V462.5C435.276 486.23 452.659 525.781 459.397 533.594C468.381 544.043 484.104 545.703 494.553 536.719C505.002 527.734 506.663 511.23 497.678 500.781C492.112 494.336 466.624 476.367 444.553 460.938Z" fill="#B46298"/>
		</g>
	</symbol>

	<symbol viewBox="0 0 150 150" xmlns="http://www.w3.org/2000/svg" id="quotes">
		<path d="M121.356 41.7437C127.794 48.5812 131.25 56.25 131.25 68.6812C131.25 90.5562 115.894 110.162 93.5625 119.856L87.9812 111.244C108.825 99.9687 112.9 85.3375 114.525 76.1125C111.169 77.85 106.775 78.4562 102.469 78.0562C91.1937 77.0125 82.3062 67.7562 82.3062 56.25C82.3062 50.4484 84.6109 44.8844 88.7133 40.782C92.8156 36.6797 98.3796 34.375 104.181 34.375C110.888 34.375 117.3 37.4375 121.356 41.7437ZM58.8562 41.7437C65.2937 48.5812 68.75 56.25 68.75 68.6812C68.75 90.5562 53.3937 110.162 31.0625 119.856L25.4813 111.244C46.325 99.9687 50.4 85.3375 52.025 76.1125C48.6688 77.85 44.275 78.4562 39.9688 78.0562C28.6937 77.0125 19.8125 67.7562 19.8125 56.25C19.8125 50.4484 22.1172 44.8844 26.2195 40.782C30.3219 36.6797 35.8859 34.375 41.6875 34.375C48.3937 34.375 54.8063 37.4375 58.8625 41.7437H58.8562Z" fill="white" fillOpacity="0.8"/>
	</symbol>
	
	<symbol viewBox="0 0 1000 1000" xmlns="http://www.w3.org/2000/svg" id="lotus">
		<g opacity="0.15">
			<path d="M831.723 676.092C827.226 676.092 823.576 679.741 823.576 684.238C823.576 732.401 690.086 783.97 491.373 783.97C292.66 783.97 159.185 732.401 159.185 684.238C159.185 679.741 155.536 676.092 151.039 676.092C146.542 676.092 142.892 679.741 142.892 684.238C142.892 756.874 320.082 800.263 491.373 800.263C662.664 800.263 839.87 756.858 839.87 684.238C839.87 679.741 836.22 676.092 831.723 676.092Z" fill="#60CFFF"/>
			<path d="M996.969 454.291C993.32 452.271 936.88 421.949 861.344 409.289C889.743 357.721 900.855 311.481 901.654 308.01L896.407 298.495C892.969 297.289 846.045 281.387 785.434 278.308C790.126 206.487 775.12 149.411 774.061 145.534L764.041 139.831C759.56 141.069 687.853 161.436 618.102 210.919C576.375 131.994 510.257 78.2261 506.2 75H496.049C491.927 78.2749 423.87 133.639 382.289 214.519C310.974 162.365 235.829 141.102 231.234 139.847L221.214 145.55C220.138 149.477 204.66 208.132 210.004 281.403C142.42 282.935 88.277 302.373 84.6599 303.725L79.6415 313.566C80.5866 316.906 93.7352 362.169 124.481 411.766C56.1629 425.599 6.46843 452.418 3.06314 454.308L0 465.615C3.37271 471.269 84.1874 604.434 220.937 641.387C229.442 643.684 237.947 645.411 246.436 646.894C253.442 691.538 375.462 718.128 493.882 718.128C610.558 718.128 730.77 692.336 741.002 648.866C753.629 647.204 766.338 644.809 779.063 641.371C915.813 604.417 996.627 471.253 1000 465.599L996.969 454.291ZM783.967 294.959C830.175 297.257 868.562 307.098 883.845 311.627C879.446 327.22 866.982 365.786 843.601 406.731C814.876 403.195 783.984 402.576 752.407 407.073C770.933 369.778 780.106 331 783.967 294.959ZM760.277 158.047C767.462 191.073 789.132 317.444 727.055 419.635C664.652 522.365 536.31 569.664 502.908 580.515C495.723 547.489 474.053 421.118 536.13 318.943C598.534 216.198 726.876 168.898 760.277 158.047ZM495.283 294.894C497.385 294.699 499.438 294.389 501.605 294.389C503.625 294.389 505.564 294.633 507.519 294.796L494.485 354.25C492.041 347.978 489.32 341.737 486.387 335.53L495.283 294.894ZM480.815 324.255C478.371 319.627 475.845 315.016 473.075 310.47C471.511 307.88 469.686 305.534 468.057 303.024C473.841 299.864 480.196 297.534 486.99 296.1L480.815 324.255ZM515.194 295.823C520.114 296.768 524.855 298.104 529.287 299.978C526.941 303.481 524.432 306.821 522.216 310.47C515.226 321.973 509.54 333.737 504.424 345.582L515.259 296.214C515.275 296.067 515.177 295.953 515.194 295.823ZM501.132 92.0265C517.621 106.299 570.444 155.098 604.774 220.776C578.982 240.621 554.2 264.637 533.768 293.346C524.09 289.029 513.189 286.552 501.605 286.552C487.576 286.552 474.721 290.365 463.69 296.54C444.171 268.336 420.464 244.548 395.536 224.735C429.768 157.069 484.318 106.576 501.132 92.0265ZM235.014 158.031C268.415 168.882 396.676 216.067 459.145 318.927C473.043 341.819 482.477 365.9 489.059 389.917C467.894 470.177 479.251 547.016 485.735 578.283C444.611 564.124 327.153 516.678 268.204 419.619C206.224 317.574 227.845 191.09 235.014 158.031ZM97.6945 316.532C114.688 311.171 159.316 299.098 211.666 298.039C215.69 332.955 224.701 370.283 242.411 406.259C207.413 401.892 173.246 403.57 142.191 408.507C117.035 369.387 102.876 331.961 97.6945 316.532ZM225.222 625.631C112.847 595.277 37.7841 492.988 18.7699 464.605C47.1365 450.821 148.383 407.008 252.122 424.116C252.888 425.436 253.491 426.788 254.289 428.108C293.817 493.167 356.66 536.295 408.456 563C323.356 597.623 230.957 595.326 163.943 556.043C161.173 554.397 157.654 555.358 156.041 558.096C154.428 560.849 155.356 564.385 158.094 565.998C195.487 587.912 240.326 598.894 287.446 598.894C331.682 598.894 377.906 589.102 421.882 569.762C445.279 581.004 465.434 588.678 478.859 593.273C441.369 610.723 331.666 654.405 225.222 625.631ZM493.914 708.857C359.332 708.857 266.884 678.601 256.538 648.458C271.658 650.576 286.648 651.635 301.312 651.635C405.637 651.635 493.556 604.532 500.041 600.98C506.509 604.532 594.428 651.635 698.77 651.635C709.393 651.635 720.228 650.984 731.128 649.908C718.289 679.578 626.314 708.857 493.914 708.857ZM774.843 625.631C666.265 654.992 554.379 608.947 519.169 592.295C565.54 576.083 680.57 527.546 740.986 428.092C741.572 427.13 742.012 426.136 742.583 425.159C848.228 405.525 952.473 450.56 981.295 464.589C962.314 492.971 887.365 595.228 774.843 625.631Z" fill="#A6A6A6"/>
			<path d="M70.2892 469.835C68.4644 467.228 64.8635 466.577 62.2566 468.401C59.6497 470.226 58.998 473.827 60.8228 476.434C67.3727 485.835 74.5417 494.911 82.1181 503.416C83.2586 504.703 84.8391 505.355 86.4358 505.355C87.8045 505.355 89.1731 504.866 90.2811 503.888C92.6599 501.77 92.8717 498.12 90.7536 495.742C83.4542 487.579 76.5784 478.862 70.2892 469.835Z" fill="#A6A6A6"/>
			<path d="M146.46 544.866C131.454 534.454 117.377 522.837 104.619 510.308C102.354 508.076 98.6884 508.108 96.4562 510.389C94.224 512.67 94.2566 516.32 96.5377 518.552C109.752 531.522 124.334 543.579 139.861 554.349C140.872 555.049 142.012 555.375 143.153 555.375C144.978 555.375 146.786 554.511 147.91 552.898C149.735 550.275 149.083 546.674 146.46 544.866Z" fill="#A6A6A6"/>
			<path d="M779.812 673.81C779.812 671.252 777.743 669.183 775.185 669.183C772.627 669.183 770.558 671.252 770.558 673.81C770.558 709.9 659.389 748.548 493.898 748.548C328.407 748.548 217.238 709.9 217.238 673.81C217.238 671.252 215.169 669.183 212.611 669.183C210.053 669.183 207.984 671.252 207.984 673.81C207.984 720.898 333.572 757.786 493.898 757.786C654.224 757.786 779.812 720.898 779.812 673.81Z" fill="#60CFFF"/>
		</g>
	</symbol>

	<symbol viewBox="0 0 85 76" xmlns="http://www.w3.org/2000/svg" id="plane">
		<path fill-rule="evenodd" clip-rule="evenodd" d="M85 0L55.4412 75.0275L36.9644 56.276L40.6566 67.5258L32.0344 75.049V56.7398L74.29 12.5819L26.8122 48.1434L0 41.2673L85 0Z" fill="#fff"/>
	</symbol>

	<symbol viewBox="0 0 50 50" xmlns="http://www.w3.org/2000/svg" id="instagram">
		<path d="M20.5124 0.201881C16.4247 0.961109 11.7766 3.20578 8.31519 6.11064C5.38126 8.55337 2.3814 13.1417 0.963887 17.367C-0.0580427 20.4039 -0.321766 27.2039 0.436439 30.67C2.34844 39.2195 9.00746 46.3496 17.6115 49.0564C20.908 50.0798 26.7099 50.3108 30.1713 49.5516C42.83 46.7788 51.3681 34.8292 49.8187 22.1534C48.5331 11.7883 41.3466 3.40384 31.424 0.697029C29.0834 0.0698433 22.8859 -0.227245 20.5124 0.201881ZM33.5997 11.7553C35.5776 12.4815 36.9292 13.7359 37.8523 15.6835C38.6764 17.499 38.7094 17.6641 38.7094 24.6292C38.7094 32.9476 38.4456 34.268 36.4347 36.3807C34.292 38.5923 32.7756 38.8894 24.1386 38.7574C17.3807 38.6583 16.8532 38.6253 15.3698 37.8661C13.6556 37.0409 12.337 35.5224 11.6447 33.6408C10.9854 31.7263 11.0184 18.2913 11.6777 16.3437C12.5677 13.8349 14.7435 12.0194 17.5455 11.4252C19.6553 10.9961 32.2152 11.2272 33.5997 11.7553Z" fill='currentColor'/>
		<path d="M17.8091 14.066C16.2927 14.4291 15.073 15.3864 14.4137 16.7398C13.8862 17.6971 13.8203 18.8525 13.8203 24.9263C13.8203 31.2972 13.8862 32.1554 14.4796 33.3768C15.6993 35.8855 16.2268 36.0176 24.8637 36.0176C33.5007 36.0176 34.0611 35.8855 35.3797 33.3768C36.0061 32.1554 36.072 31.5282 36.072 24.9593C36.072 18.0602 36.039 17.8292 35.2808 16.4758C33.9293 14.1321 33.1381 13.901 25.5231 13.835C21.8969 13.802 18.4355 13.901 17.8091 14.066ZM33.6985 16.7398C33.8633 17.0369 33.9293 17.6641 33.7974 18.1262C33.5666 19.1165 32.1821 19.6447 31.325 19.1165C30.6657 18.6874 30.4679 17.136 30.9953 16.5088C31.5228 15.8816 33.2699 16.0466 33.6985 16.7398ZM27.8306 18.5224C29.1822 19.0505 30.8635 20.8 31.4898 22.2855C32.3139 24.2001 31.9843 27.27 30.7646 28.9865C27.7977 33.2448 21.4353 33.0797 18.897 28.7224C17.0509 25.5535 17.5784 22.0874 20.3145 19.7107C22.4902 17.7631 25.0286 17.367 27.8306 18.5224Z" fill='currentColor'/>
		<path d="M24.0397 20.6016C22.9189 20.7667 21.5014 21.856 20.908 22.9783C19.029 26.6424 23.0837 30.8347 26.8088 29.0851C29.479 27.7978 30.1713 24.0346 28.0945 21.922C27.0725 20.9317 25.4572 20.4036 24.0397 20.6016Z" fill='currentColor'/>
	</symbol>

	<symbol viewBox="0 0 50 50" xmlns="http://www.w3.org/2000/svg" id="facebook">
		<path d="M20.5334 0.305557C19.6108 0.47031 17.7657 0.964573 16.4478 1.45884C8.27661 4.39147 2.44476 11.0146 0.401966 19.6807C-0.322897 22.811 -0.0263623 29.6648 0.962087 32.5645C3.72974 40.7363 9.59454 46.5027 17.601 49.0399C21.1265 50.1603 26.9254 50.325 30.6815 49.4024C41.4226 46.8322 49.0007 37.9355 49.9233 26.7981C50.9117 14.4415 42.2463 3.00753 29.8907 0.47031C27.1889 -0.0898552 23.301 -0.155758 20.5334 0.305557ZM31.9335 12.6292V15.3971L29.726 15.4959L27.4855 15.5948L27.3866 17.6377L27.2878 19.7136H29.6271C32.23 19.7136 32.0982 19.483 31.7358 22.9758L31.5052 24.9858H29.4294H27.3207V32.5645V40.1432H24.1906H21.0606V32.5645V24.9858H19.4131H17.7657V22.3497V19.7136H19.3802H20.9947L21.1265 16.4515C21.2582 12.6292 21.6866 11.7725 24.0259 10.5533C25.245 9.96017 26.0028 9.82837 28.7046 9.82837H31.9335V12.6292Z" fill='currentColor'/>
	</symbol>

	<symbol viewBox="0 0 50 50" xmlns="http://www.w3.org/2000/svg" id="telegram">
		<path d="M35.2208 14.9651C35.2307 14.9651 35.244 14.9651 35.2573 14.9651C35.6042 14.9651 35.9263 15.073 36.1902 15.259L36.1853 15.2556C36.3778 15.4233 36.5073 15.659 36.5388 15.9246V15.9296C36.572 16.1321 36.5903 16.3645 36.5903 16.6019C36.5903 16.7098 36.587 16.8161 36.5787 16.9223V16.9074C36.2052 20.84 34.585 30.3768 33.7616 34.7792C33.413 36.6434 32.7274 37.2676 32.0634 37.3274C30.6208 37.4618 29.5252 36.3745 28.1275 35.4582C25.9396 34.0222 24.7029 33.1292 22.5797 31.7297C20.1245 30.1145 21.7165 29.2231 23.1142 27.7722C23.4811 27.3904 29.8406 21.6052 29.9651 21.0807C29.9718 21.0491 29.9751 21.0143 29.9751 20.9778C29.9751 20.8483 29.927 20.7304 29.8489 20.6408C29.7626 20.5843 29.6547 20.5528 29.5418 20.5528C29.4671 20.5528 29.3958 20.5677 29.3293 20.5926L29.3327 20.591C29.1135 20.6408 25.6186 22.9504 18.8479 27.5199C18.1092 28.1026 17.1763 28.4711 16.1604 28.5143H16.1504C14.7112 28.34 13.4047 28.0196 12.1647 27.5631L12.2875 27.6029C10.7304 27.095 9.49369 26.8277 9.59993 25.9678C9.65637 25.5207 10.2728 25.0631 11.4492 24.595C18.6958 21.4376 23.5281 19.3565 25.9462 18.3516C28.6139 16.9356 31.7065 15.7703 34.9585 15.0149L35.2191 14.9635L35.2208 14.9651ZM24.9419 0C11.1604 0.0332005 0 11.2135 0 25C0 38.8064 11.1919 50 25 50C38.8081 50 50 38.8081 50 25C50 11.2135 38.8396 0.0332005 25.0614 0H25.0581C25.0194 0 24.9806 0 24.9419 0Z" fill='currentColor'/>
	</symbol>

	<symbol viewBox="0 0 35 35" xmlns="http://www.w3.org/2000/svg" id="marker">
		<path d="M17.5001 2.91699C11.8563 2.91699 7.29175 7.48158 7.29175 13.1253C7.29175 20.7816 17.5001 32.0837 17.5001 32.0837C17.5001 32.0837 27.7084 20.7816 27.7084 13.1253C27.7084 7.48158 23.1438 2.91699 17.5001 2.91699ZM17.5001 16.7712C15.4876 16.7712 13.8542 15.1378 13.8542 13.1253C13.8542 11.1128 15.4876 9.47949 17.5001 9.47949C19.5126 9.47949 21.1459 11.1128 21.1459 13.1253C21.1459 15.1378 19.5126 16.7712 17.5001 16.7712Z" fill="currentColor"/>
	</symbol>

	<symbol viewBox="0 0 35 35" fill="none" xmlns="http://www.w3.org/2000/svg" id="mail">
		<path d="M32.0834 12.1338V26.2505C32.0834 27.024 31.7761 27.7659 31.2291 28.3128C30.6822 28.8598 29.9403 29.1671 29.1667 29.1671H5.83341C5.05987 29.1671 4.318 28.8598 3.77102 28.3128C3.22404 27.7659 2.91675 27.024 2.91675 26.2505V12.6734L5.83341 14.263L16.8001 20.2421C17.0151 20.3582 17.2558 20.4183 17.5001 20.4171C17.7569 20.4145 18.0084 20.344 18.2292 20.213L29.1667 13.84L32.0834 12.1338Z" fill="currentColor"/>
		<path d="M32.0834 8.74967L29.1667 10.4705L17.5001 17.2809L5.83341 10.9372L2.91675 9.33301V8.74967C2.91675 7.97613 3.22404 7.23426 3.77102 6.68728C4.318 6.1403 5.05987 5.83301 5.83341 5.83301H29.1667C29.9403 5.83301 30.6822 6.1403 31.2291 6.68728C31.7761 7.23426 32.0834 7.97613 32.0834 8.74967Z" fill="currentColor"/>
	</symbol>

	<symbol viewBox="0 0 35 35" xmlns="http://www.w3.org/2000/svg" id="phone">
		<path d="M6.48113 1.48317C4.07625 3.04286 3.60382 7.91818 4.51177 11.8917C5.21888 14.9861 6.72224 19.1369 9.25728 23.0456C11.6421 26.7226 14.9692 30.0197 17.5061 31.9274C20.7639 34.3768 25.4081 35.9338 27.813 34.3741C29.029 33.5854 30.8357 31.4307 30.9181 31.044C30.9181 31.044 29.8587 29.4105 29.6262 29.052L26.0734 23.5741C25.8094 23.167 24.1537 23.5391 23.3126 24.0154C22.1781 24.6583 21.1332 26.3831 21.1332 26.3831C20.3553 26.8326 19.7037 26.3848 18.3422 25.7582C16.669 24.9883 14.7878 22.5963 13.2905 20.4298C11.923 18.1792 10.5061 15.4859 10.4856 13.6442C10.4687 12.1456 10.3255 11.3681 11.0532 10.841C11.0532 10.841 13.0542 10.5904 14.1039 9.81673C14.8819 9.24306 15.8968 7.88311 15.6328 7.47596L12.08 1.99805C11.8476 1.63958 10.7881 0.00606211 10.7881 0.00606211C10.4014 -0.0763109 7.69718 0.694509 6.48113 1.48317Z" fill="currentColor"/>
	</symbol>

	<symbol viewBox="0 0 30 30" xmlns="http://www.w3.org/2000/svg" id="dropdown">
		<path fill="currentColor" d="M23.3334 17.5075C23.334 17.294 23.2948 17.0831 23.2185 16.8902C23.1423 16.6974 23.0311 16.5275 22.893 16.393L15.7508 9.49169C15.5378 9.28152 15.2706 9.16669 14.9949 9.16669C14.7192 9.16669 14.452 9.28152 14.239 9.49169L7.09683 16.6359C6.85383 16.8784 6.70083 17.2269 6.67183 17.6047C6.64283 17.9826 6.74 18.3587 6.94217 18.6505C7.14417 18.9423 7.4345 19.1258 7.74933 19.1606C8.064 19.1955 8.3775 19.0788 8.6205 18.8363L15.0009 12.4494L21.3812 18.6219C21.5559 18.7967 21.7687 18.9077 21.9943 18.9418C22.22 18.9759 22.449 18.9317 22.6544 18.8145C22.8598 18.6972 23.0329 18.5118 23.1532 18.2802C23.2735 18.0486 23.3361 17.7804 23.3334 17.5075Z"/>
	</symbol>

	<symbol viewBox="0 0 150 150" xmlns="http://www.w3.org/2000/svg" id="star">
		<path fill="currentColor" clip-rule="evenodd" d="M62.7378 8.51485C67.246 -2.83832 82.7539 -2.83825 87.2627 8.51485L102.753 47.5222L137.498 49.6413C149.683 50.3845 154.51 66.36 144.912 74.1798L115.988 97.7429L127.516 131.61C131.79 144.165 118.08 155.06 107.498 147.517L75 124.351L42.5017 147.517C31.9206 155.06 18.2098 144.165 22.4834 131.61L34.0116 97.7429L5.08829 74.1798C-4.51 66.3607 0.31718 50.3845 12.5027 49.6413L47.2467 47.5222L62.7378 8.51485ZM75 13.7503L56.3385 60.7417L13.2814 63.368L49.6816 93.0224L34.9887 136.186L75 107.665L115.012 136.186L100.319 93.0224L136.718 63.368L93.6614 60.7417L75 13.7503Z" />
	</symbol>

	<symbol viewBox="0 0 150 150" xmlns="http://www.w3.org/2000/svg" id="clock">
		<path fill="currentColor" clip-rule="evenodd" d="M15 75C15 41.8629 41.8629 15 75 15C108.137 15 135 41.8629 135 75C135 108.137 108.137 135 75 135C41.8629 135 15 108.137 15 75ZM75 0C33.5786 0 0 33.5786 0 75C0 116.421 33.5786 150 75 150C116.421 150 150 116.421 150 75C150 33.5786 116.421 0 75 0ZM82.5 30C82.5 25.8579 79.1423 22.5 75 22.5C70.8577 22.5 67.5 25.8579 67.5 30V75C67.5 76.989 68.2905 78.897 69.6967 80.3033L92.1967 102.803C95.1255 105.732 99.8745 105.732 102.803 102.803C105.732 99.8745 105.732 95.1255 102.803 92.1967L82.5 71.8935V30Z" />
	</symbol>

	<symbol viewBox="0 0 800 639" xmlns="http://www.w3.org/2000/svg" id="miniLotus">
		<path fill="currentColor" d="M794.333 485.393C792.056 482.321 756.897 435.603 703.208 401.607C760.416 321.042 743.678 202.437 742.866 196.967C741 184.419 731.149 174.564 718.599 172.7C714.033 172.022 630.544 160.231 556.211 189.686C522.402 84.5955 422.509 9.43162 417.429 5.666C407.237 -1.88867 393.302 -1.88867 383.11 5.666C378.026 9.43475 277.907 84.7736 244.218 190.059C169.65 160.122 85.4639 172.016 80.8748 172.698C68.3264 174.563 58.4718 184.416 56.6077 196.966C55.7936 202.441 39.0265 321.267 96.4279 401.834C42.9437 435.81 7.93905 482.328 5.66718 485.392C-1.88906 495.584 -1.88906 509.518 5.66718 519.71C9.27029 524.573 95.2373 638.805 206.715 638.804C300.453 638.804 376.138 558.045 399.999 529.446C423.86 558.045 499.549 638.805 593.283 638.804C704.761 638.804 790.728 524.571 794.331 519.71C801.889 509.52 801.889 495.585 794.333 485.393ZM567.029 247.722C608.374 227.753 659.1 226.516 687.727 227.841C689.45 265.123 686.87 339.897 644.171 382.592C605.452 421.312 540.347 427.04 500.768 426.485C535.244 382.229 567.296 323.409 567.296 257.641C567.296 254.314 567.188 251.012 567.029 247.722ZM111.762 227.661C144.181 226.137 193.934 229.094 233.493 248.408C233.354 251.472 233.259 254.545 233.259 257.642C233.259 323.479 265.376 382.354 299.892 426.625C256.809 427.243 192.346 419.632 155.306 382.59C112.544 339.829 110.023 264.881 111.762 227.661ZM206.715 581.179C146.339 581.179 91.6373 530.134 66.4921 502.553C81.642 485.935 107.529 460.81 138.917 443.451C188.607 477.418 251.864 484.185 294.282 484.185C307.843 484.185 319.248 483.496 327.423 482.785C335.135 490.004 341.763 496.874 347.056 502.685C318.438 534.117 263.395 581.179 206.715 581.179ZM400.24 449.109C365.637 418.685 290.887 343.068 290.887 257.641C290.887 172.583 365.668 96.7471 400.277 66.2096C434.884 96.7455 509.671 172.581 509.671 257.641C509.669 342.743 434.813 418.61 400.24 449.109ZM593.285 581.179C532.81 581.179 478.035 529.967 452.946 502.418C458.497 496.321 465.055 489.632 472.415 482.818C480.562 483.518 491.837 484.185 505.196 484.185C547.68 484.185 611.066 477.393 660.791 443.292C692.316 460.659 718.322 485.89 733.513 502.551C708.369 530.131 653.667 581.179 593.285 581.179Z" />
	</symbol>

	<symbol viewBox="0 0 24 24" xmlns="http://www.w3.org/2000/svg" id="buttonArrow">
		<path fill="currentColor" stroke="currentColor" stroke-width="2" stroke-linecap="round" stroke-linejoin="round" d="M12 6V18M12 6L7 11M12 6L17 11" />
	</symbol>

	<symbol viewBox="0 0 24 24" xmlns="http://www.w3.org/2000/svg" id="burger">
		<path d="M5 12H20" stroke="currentColor" stroke-width="2" stroke-linecap="round"/>
		<path d="M5 17H20" stroke="currentColor" stroke-width="2" stroke-linecap="round"/>
		<path d="M5 7H20" stroke="currentColor" stroke-width="2" stroke-linecap="round"/>
	</symbol>

</svg>
